<svg width="35" height="40" viewBox="0 0 35 40" xmlns="http://www.w3.org/2000/svg"><title>Path + Natureza</title><g fill="none" fill-rule="evenodd"><path d="M17.333 0C7.776 0 0 7.586 0 16.91c0 8.934 14.575 21.312 16.237 22.694.316.264.708.396 1.096.396.39 0 .783-.132 1.097-.396 1.66-1.38 16.2-13.73 16.237-22.662v-.033C34.667 7.585 26.89 0 17.333 0z" fill="#58CCC2"/><g fill="#FFF"><path d="M20.9 23.467c-.998.998-2.225 1.78-3.545 2.256-.017.006-.035.006-.05 0-3.807-1.378-6.364-5.02-6.365-9.056 0-2.57 1-4.982 2.818-6.8.998-.998 2.224-1.78 3.544-2.256.02-.006.036-.006.055 0 3.803 1.378 6.36 5.02 6.36 9.057 0 2.57-1 4.983-2.817 6.8-.26.26-.26.682 0 .943.26.26.682.26.943 0 2.067-2.068 3.207-4.82 3.208-7.743 0-4.6-2.91-8.742-7.24-10.31-.314-.113-.655-.114-.966 0-1.5.544-2.893 1.43-4.028 2.567-2.07 2.068-3.21 4.82-3.21 7.743 0 4.6 2.91 8.74 7.242 10.31.308.112.65.112.96 0 1.505-.544 2.9-1.43 4.035-2.567.26-.26.26-.683 0-.943-.26-.26-.683-.26-.943 0z"/><path d="M16.667 7v22.667c0 .368.298.666.666.666.37 0 .667-.298.667-.666V7c0-.368-.298-.667-.667-.667-.368 0-.666.3-.666.667z"/><path d="M24.01 15.894L17.21 20.56c-.304.21-.38.624-.172.927.208.304.623.38.927.173l6.797-4.667c.304-.208.38-.623.172-.927-.208-.303-.623-.38-.927-.172z"/><path d="M9.88 16.993l6.796 4.667c.304.208.72.13.927-.173.208-.303.13-.718-.172-.927l-6.797-4.666c-.303-.21-.718-.13-.927.172-.208.304-.13.72.173.927zM22.704 11.495l-5.464 4c-.297.217-.36.634-.144.93.218.3.635.363.932.146l5.464-4c.297-.217.36-.634.144-.93-.217-.298-.635-.363-.932-.145z"/><path d="M11.24 12.57l5.464 4c.297.218.715.154.932-.144.217-.297.153-.714-.144-.93l-5.464-4c-.297-.22-.714-.154-.932.143-.217.296-.153.713.144.93z"/></g></g></svg>