<svg width="43" height="51" viewBox="0 0 43 51" xmlns="http://www.w3.org/2000/svg"><title>Icon Hotel</title><g fill="none" fill-rule="evenodd"><path d="M21.5 0C9.645 0 0 9.533 0 21.247c0 11.23 18.08 26.785 20.14 28.522.392.33.878.495 1.36.495.484 0 .97-.165 1.36-.496C24.923 48.03 43 32.476 43 21.246 43 9.533 33.354 0 21.5 0z" fill="#1A1A1A"/><path d="M27.335 31.947c-2.81.098-3.117-1.706-6.64-1.667-2.68.03-4.83 1.693-6.68 1.008.063.042.12.08.18.122 1.28.748 1.7.96 3.094.606 2.015-.515 3.346-.88 5.256-.276 1.272.4 2.988 1.408 4.923.88.994-.27 2.054-.89 2.335-1.82-.56.82-1.676 1.12-2.47 1.147zm-1.42-11.727c-2.342 0-5.19.85-4.905 3.392h2.32c.028.008.062.013.11.013 1 0 1.823.755 1.92 1.72v.378c-.08.797-.655 1.448-1.417 1.652-2.494.347-7.4.494-7.4-3.763H7.587c.955.768 2.12 3.798 4.577 6.19.897.61 2.013.956 4.642.21 3.972-1.127 5.025-1.228 7.234-.246 1.374.612 2.156 1.148 3.585 1.033 1.122-.09 2-.683 2.273-1.554l.003-3.473c0-3.353 3.218-2.717 3.218-5.553h-7.202zm-9.404 12.615c1.184.516 2.478.577 5.873.577.952 0 1.795-.025 2.558-.073-1.562-.165-2.27-.89-4.775-.938-1.41-.027-2.59.22-3.654.433zM27.378 8.863c-1.772-.332-3.458-.5-5.01-.5-4.233 0-7.186 1.243-9.246 2.9-.005.006-.015.01-.023.016l.003.002c-1.515 1.225-2.544 2.672-3.237 4.012-1.754 3.388-1.774 6.732-1.774 6.872v.66h7.673l-.026-.684c-.002-.065-.203-6.563 3.59-7.59.92-.248 1.94-.28 2.926-.312 2.587-.084 5.52-.178 5.667-4.707l.018-.564-.56-.107zM9.46 21.506c.054-.616.184-1.616.5-2.778.242-.952 1.492-1.99 2.917-2.418 1.02-.306 1.94-.253 2.605.13-.868 1.853-1.047 3.99-1.078 5.066H9.46zm9.514-8.226c-1.256.34-2.168 1.09-2.83 2.018-.985-.565-2.274-.665-3.655-.25-.44.13-.86.308-1.253.516.704-1.268 1.576-2.332 2.61-3.192 1.36-.884 3.98-1.373 5.733-.694.693.27 1.186.703 1.475 1.292-.694.043-1.393.124-2.08.31zm3.49-.368c-.375-1.147-1.195-1.997-2.397-2.463-.472-.184-.987-.296-1.52-.355 1.17-.273 2.443-.413 3.82-.413 1.3 0 2.704.126 4.182.375-.263 2.638-1.737 2.776-4.086 2.855z" fill="#FFF"/></g></svg>