<svg width="35" height="40" viewBox="0 0 35 40" xmlns="http://www.w3.org/2000/svg"><title>Path + icon</title><g fill="none" fill-rule="evenodd"><path d="M17.333 0C7.776 0 0 7.586 0 16.91c0 8.934 14.575 21.312 16.237 22.694.316.264.708.396 1.096.396.39 0 .783-.132 1.097-.396 1.663-1.382 16.237-13.76 16.237-22.695C34.667 7.585 26.89 0 17.333 0z" fill="#58CCC2"/><g fill="#FFF"><path d="M26.667 17.333c0-5.154-4.18-9.333-9.334-9.333S8 12.18 8 17.333c0 5.155 4.18 9.334 9.333 9.334 5.155 0 9.334-4.18 9.334-9.334zm1.333 0C28 23.223 23.224 28 17.333 28c-5.89 0-10.666-4.776-10.666-10.667 0-5.89 4.776-10.666 10.666-10.666C23.223 6.667 28 11.443 28 17.333z"/><path d="M27.082 17.82c-5.412 0-9.793-4.273-9.793-9.537 0-.21.006-.422.02-.632.025-.366-.253-.684-.62-.71-.368-.024-.686.254-.71.622-.016.24-.025.48-.025.72 0 6.01 4.986 10.873 11.127 10.873.368 0 .667-.3.667-.667 0-.368-.3-.667-.668-.667zM7.882 17.477c5.315 0 9.652 4.13 9.79 9.286.01.368.316.658.684.648.368-.01.658-.315.648-.683-.157-5.886-5.09-10.584-11.122-10.584-.368 0-.667.3-.667.667 0 .368.3.667.667.667z"/><path d="M23.76 9.78L9.68 23.695c-.263.26-.266.68-.007.943.26.262.68.264.943.006l14.082-13.916c.26-.258.264-.68.005-.942-.26-.262-.68-.265-.943-.006z"/></g></g></svg>