<svg width="35" height="40" viewBox="0 0 35 40" xmlns="http://www.w3.org/2000/svg"><title>Path + icon</title><g fill="none" fill-rule="evenodd"><path d="M17.333 0C7.776 0 0 7.586 0 16.91c0 8.934 14.575 21.312 16.237 22.694.316.264.708.396 1.096.396.39 0 .783-.132 1.097-.396 1.663-1.382 16.237-13.76 16.237-22.695C34.667 7.585 26.89 0 17.333 0z" fill="#58CCC2"/><g fill="#FFF"><path d="M10.014 14.012l15.984-.008-.632-.88-2.69 7.99.632-.455-11.306.007.64.478-3.345-11.32c-.084-.284-.343-.478-.64-.478l-2.653-.002c-.368 0-.667.298-.667.666 0 .37.298.668.666.668l2.654.002-.64-.478 3.346 11.32c.084.284.344.478.64.478l11.306-.008c.285 0 .54-.183.63-.454l2.69-7.988c.145-.432-.177-.88-.633-.88l-15.984.008c-.368 0-.667.3-.666.667 0 .368.298.667.667.667zM13.778 28.222c1.35 0 2.444-1.094 2.444-2.444 0-1.35-1.094-2.445-2.444-2.445-1.35 0-2.445 1.095-2.445 2.445 0 1.35 1.095 2.444 2.445 2.444zm0-1.333c-.614 0-1.11-.5-1.11-1.112 0-.614.496-1.11 1.11-1.11.613 0 1.11.496 1.11 1.11 0 .613-.497 1.11-1.11 1.11zM21.778 28.222c1.35 0 2.444-1.094 2.444-2.444 0-1.35-1.094-2.445-2.444-2.445-1.35 0-2.445 1.095-2.445 2.445 0 1.35 1.095 2.444 2.445 2.444zm0-1.333c-.614 0-1.11-.5-1.11-1.112 0-.614.496-1.11 1.11-1.11.613 0 1.11.496 1.11 1.11 0 .613-.497 1.11-1.11 1.11z"/></g></g></svg>