<svg width="35" height="40" viewBox="0 0 35 40" xmlns="http://www.w3.org/2000/svg"><title>Path + monumento</title><g fill="none" fill-rule="evenodd"><path d="M17.333 0C7.776 0 0 7.586 0 16.91c0 8.934 14.575 21.312 16.237 22.694.316.264.708.396 1.096.396.39 0 .783-.132 1.097-.396 1.663-1.382 16.237-13.76 16.237-22.695C34.667 7.585 26.89 0 17.333 0z" fill="#58CCC2"/><path d="M16.906 5.16l10.012 9.348.455-1.154-20 .006.455 1.153 9.99-9.354h-.912zm.91-.975c-.256-.24-.655-.24-.91 0l-9.99 9.355c-.44.413-.148 1.154.456 1.153l20.002-.006c.604 0 .896-.74.454-1.154L17.816 4.185zM11.312 14.79h4l-.667-.668v9.334l.667-.667h-4l.667.666v-9.334l-.668.667zm0-1.334c-.368 0-.667.298-.667.666v9.334c0 .368.3.666.667.666h4c.368 0 .667-.298.667-.666v-9.334c0-.368-.3-.666-.668-.666h-4zm8 1.333h4l-.667-.668v9.334l.667-.667h-4l.667.666v-9.334l-.668.667zm0-1.334c-.368 0-.667.298-.667.666v9.334c0 .368.3.666.667.666h4c.368 0 .667-.298.667-.666v-9.334c0-.368-.3-.666-.668-.666h-4zm-10.62 10.86l17.334-.055-.67-.665v3.945l.666-.666-17.334.054.67.667V23.65l-.666.666zm-.004-1.333c-.367 0-.664.3-.664.666v3.945c0 .37.3.668.668.666l17.334-.053c.367 0 .664-.3.664-.667v-3.945c0-.37-.3-.668-.668-.667l-17.334.055z" fill="#FFF"/></g></svg>