<svg width="264.7" height="111" xmlns="http://www.w3.org/2000/svg">
 <style type="text/css">.st0{fill:#4FAEA8;}
	.st1{fill:url(#SVGID_1_);}
	.st2{fill:#FFFFFF;}
	.st3{opacity:0.25;}
	.st4{fill:#63C0BB;}
	.st5{fill:#4D4D4D;}</style>

 <g>
  <title>background</title>
  <rect fill="none" id="canvas_background" height="402" width="582" y="-1" x="-1"/>
 </g>
 <g>
  <title>Layer 1</title>
  <g id="svg_27">
   <path id="svg_28" d="m2.1,111l58.4,-0.4l58,0.4c1.9,0 2,-2.3 0,-2.3l-58,0.8l-58.4,-0.8c-1.9,0 -1.8,2.3 0,2.3m13.8,-28.8c-0.4,0 -0.6,-0.2 -0.8,-0.5l-6.6,-18.8c-0.2,-0.3 -0.1,-0.5 0.3,-0.5l2.6,0c0.4,0 0.6,0.2 0.7,0.5l2.9,8.9l1.3,4.9l0.5,2.1l0.5,-2.1l1.1,-3.8l3.4,-10c0.1,-0.4 0.4,-0.5 0.7,-0.5l1.8,0c0.3,0 0.5,0.2 0.3,0.5l-7,18.8c-0.1,0.3 -0.4,0.5 -0.8,0.5l-0.9,0m11.5,-17c-0.4,0 -0.5,-0.2 -0.5,-0.6l0,-2.2c0,-0.4 0.2,-0.5 0.5,-0.5l2.2,0c0.4,0 0.5,0.2 0.5,0.5l0,2.2c0,0.4 -0.2,0.6 -0.5,0.6l-2.2,0zm0,17c-0.4,0 -0.5,-0.2 -0.5,-0.6l0,-13.1c0,-0.4 0.2,-0.5 0.5,-0.5l2.2,0c0.4,0 0.5,0.2 0.5,0.5l0,13.2c0,0.4 -0.2,0.6 -0.5,0.6c0,-0.1 -2.2,-0.1 -2.2,-0.1zm9.3,0c-2.5,0 -3.8,-1.4 -3.8,-4.3l0,-15.5c0,-0.4 0.2,-0.5 0.5,-0.5l2.2,0c0.4,0 0.5,0.2 0.5,0.5l0,15.3c0,1.5 0.4,2.2 0.8,2.2l0.2,0c0.4,0 0.5,0.2 0.5,0.6l0,1.2c0,0.4 -0.2,0.6 -0.5,0.6l-0.4,0m12.1,-0.1c-0.4,0 -0.5,-0.2 -0.5,-0.6l-0.3,-1.1l0,0c-0.7,1.3 -2.1,2 -4,2c-2.8,0 -5.2,-1.6 -5.2,-5c0,-3.5 2.6,-4.5 5.7,-4.5l2.8,0c-0.1,-1.2 -0.7,-3.2 -3,-3.2c-0.9,0 -1.9,0.3 -3.1,0.7c-0.5,0.2 -0.6,0.1 -0.7,-0.1l-0.5,-0.8c-0.2,-0.2 -0.2,-0.5 0,-0.7c0.5,-0.6 2.6,-1.3 4.8,-1.3c4.8,0 6,3.4 6,7.3l0,6.8c0,0.4 -0.2,0.6 -0.5,0.6l-1.5,-0.1l0,0zm-1.3,-6.8l-2.9,0c-1.5,0 -2.4,0.8 -2.4,2.1c0,1.1 0.7,2.8 2.6,2.8c1.7,0 2.7,-1.2 2.7,-4l0,-0.9l0,0zm25.6,-2l-2.4,0c-0.4,0 -0.6,-0.2 -0.6,-0.5l0,-1.4c0,-0.4 0.2,-0.5 0.6,-0.5l5.3,0c0.4,0 0.6,0.2 0.6,0.5l0,9.3c0,0.2 0,0.3 -0.1,0.4c-0.7,0.5 -3.1,1.3 -5.5,1.3c-5.5,0 -9.7,-3.4 -9.7,-10.2c0,-6.9 4.2,-10.2 9.7,-10.2c2.4,0 4.8,0.9 5.5,1.3c0.2,0.2 0.2,0.3 0,0.7l-0.4,1c-0.1,0.2 -0.4,0.1 -0.7,0.1c-0.8,-0.2 -2.6,-0.7 -4.4,-0.7c-3.3,0 -6.1,2.1 -6.1,7.8c0,5.7 2.8,7.8 6.1,7.8c0.8,0 1.5,-0.1 2.2,-0.2l-0.1,-6.5m16,8.8c-0.4,0 -0.5,-0.2 -0.6,-0.6l-0.3,-1.1l-0.1,0c-0.7,1.3 -2.1,2 -4,2c-2.8,0 -5.2,-1.6 -5.2,-5c0,-3.5 2.6,-4.5 5.7,-4.5l2.8,0c-0.1,-1.2 -0.7,-3.2 -3,-3.2c-0.9,0 -1.9,0.3 -3.1,0.7c-0.5,0.2 -0.6,0.1 -0.7,-0.1l-0.6,-0.9c-0.2,-0.2 -0.2,-0.5 0,-0.7c0.6,-0.6 2.6,-1.3 4.8,-1.3c4.8,0 6,3.4 6,7.3l0,6.8c0,0.4 -0.2,0.6 -0.6,0.6l-1.1,0l0,0zm-1.4,-6.8l-2.9,0c-1.5,0 -2.4,0.8 -2.4,2.1c0,1.1 0.7,2.8 2.6,2.8c1.7,0 2.7,-1.2 2.7,-4l0,-0.9l0,0zm9.5,6.8c-2.5,0 -3.8,-1.4 -3.8,-4.3l0,-15.5c0,-0.4 0.2,-0.5 0.5,-0.5l2.2,0c0.4,0 0.5,0.2 0.5,0.5l0,15.3c0,1.5 0.4,2.2 0.8,2.2l0.2,0c0.4,0 0.6,0.2 0.6,0.6l0,1.2c0,0.4 -0.2,0.6 -0.6,0.6l-0.4,0m13.6,-1.8c0.2,0.2 0.2,0.5 0,0.7c-0.5,0.6 -2.5,1.3 -4.9,1.3c-5.1,0 -6.5,-3.5 -6.5,-7.3c0,-4.2 1.7,-7.6 6.1,-7.6c3.3,0 5.9,1.9 5.9,5.9c0,2.1 -0.7,2.8 -3,2.8l-5.6,0c0.2,2.3 1,4 3.5,4c1.1,0 2.1,-0.3 3.2,-0.7c0.6,-0.2 0.6,-0.1 0.7,0.1l0.6,0.8l0,0zm-3.8,-6.6c0.8,0 1.1,-0.1 1.1,-0.9c0,-1.6 -1,-3.1 -2.4,-3.1c-2,0 -2.7,1.9 -2.9,4l4.2,0l0,0zm-1.5,-11.6c0.2,-0.3 0.5,-0.5 0.9,-0.5l2.5,0c0.4,0 0.4,0.1 0.1,0.4l-3.1,2.9c-0.3,0.3 -0.6,0.4 -1,0.4l-0.8,0c-0.4,0 -0.5,-0.1 -0.3,-0.5l1.7,-2.7l0,0zm-62.7,42.6c-0.1,0 -0.2,-0.1 -0.2,-0.2l0,-3.1l-2.6,0l0,3.1c0,0.1 -0.1,0.2 -0.2,0.2l-0.9,0c-0.1,0 -0.2,-0.1 -0.2,-0.2l0,-7c0,-0.1 0.1,-0.2 0.2,-0.2l0.9,0c0.1,0 0.2,0.1 0.2,0.2l0,2.9l2.6,0l0,-2.9c0,-0.1 0.1,-0.2 0.2,-0.2l0.9,0c0.1,0 0.2,0.1 0.2,0.2l0,7c0,0.1 -0.1,0.2 -0.2,0.2l-0.9,0m4.1,-3.7c0,-2.6 1.6,-3.8 3.6,-3.8c2.1,0 3.6,1.3 3.6,3.8c0,2.6 -1.6,3.8 -3.6,3.8c-2,0 -3.6,-1.2 -3.6,-3.8zm5.9,0c0,-2.1 -1,-2.9 -2.3,-2.9c-1.2,0 -2.3,0.8 -2.3,2.9c0,2.1 1,2.8 2.3,2.8s2.3,-0.7 2.3,-2.8l0,0zm5.5,3.7c-0.1,0 -0.2,-0.1 -0.2,-0.2l0,-6.3l-1.5,0c-0.1,0 -0.2,-0.1 -0.2,-0.2l0,-0.5c0,-0.1 0.1,-0.2 0.2,-0.2l4.3,0c0.1,0 0.2,0.1 0.2,0.2l0,0.5c0,0.1 -0.1,0.2 -0.2,0.2l-1.5,0l0,6.3c0,0.1 -0.1,0.2 -0.2,0.2l-0.9,0m5.7,0c-0.1,0 -0.2,-0.1 -0.2,-0.2l0,-7c0,-0.1 0.1,-0.2 0.2,-0.2l3.6,0c0.1,0 0.2,0.1 0.2,0.2l0,0.5c0,0.1 -0.1,0.2 -0.2,0.2l-2.5,0l0,2.3l2,0c0.1,0 0.2,0.1 0.2,0.2l0,0.5c0,0.1 -0.1,0.2 -0.2,0.2l-2,0l0,2.4l2.5,0c0.1,0 0.2,0.1 0.2,0.2l0,0.5c0,0.1 -0.1,0.2 -0.2,0.2l-3.6,0l0,0zm1.8,-9.5c0.1,-0.1 0.2,-0.2 0.3,-0.2l0.9,0c0.1,0 0.2,0 0.1,0.1l-1.1,1.2c-0.1,0.1 -0.2,0.1 -0.4,0.1l-0.3,0c-0.1,0 -0.2,-0.1 -0.1,-0.2l0.6,-1l0,0zm5.2,9.5c-0.1,0 -0.2,-0.1 -0.2,-0.2l0,-7c0,-0.1 0.1,-0.2 0.2,-0.2l0.9,0c0.1,0 0.2,0.1 0.2,0.2l0,7c0,0.1 -0.1,0.2 -0.2,0.2l-0.9,0m5.9,-3.3c-1,-0.4 -1.7,-1 -1.7,-2.1c0,-1.3 1.1,-2.2 2.5,-2.2c0.9,0 1.9,0.3 2.1,0.5c0.1,0.1 0.1,0.1 0,0.3l-0.2,0.4c0,0.1 -0.2,0.1 -0.3,0c-0.3,-0.1 -1.1,-0.2 -1.6,-0.2c-1.1,0 -1.4,0.6 -1.4,1.1c0,0.4 0.2,0.7 0.9,1l1,0.4c1.2,0.4 1.8,1.3 1.8,2.2c0,1.3 -1.1,2 -2.7,2c-0.9,0 -1.9,-0.3 -2.2,-0.5c-0.1,-0.1 -0.1,-0.1 0,-0.3l0.2,-0.4c0,-0.1 0.2,-0.1 0.3,0c0.3,0.1 1.1,0.2 1.7,0.2c0.9,0 1.5,-0.4 1.5,-1c0,-0.5 -0.4,-0.9 -1,-1.1l-0.9,-0.3m-1.3,-47.5c-6.3,0.2 -7,-3.9 -14.9,-3.8c-6,0.1 -10.8,3.8 -15,2.3c0.1,0.1 0.3,0.2 0.4,0.3c2.9,1.7 3.8,2.2 7,1.4c4.5,-1.2 7.5,-2 11.8,-0.6c2.9,0.9 6.7,3.2 11.1,2c2.2,-0.6 4.6,-2 5.2,-4.1c-1.3,1.8 -3.8,2.5 -5.6,2.5" class="st5"/>
   <path id="svg_29" d="m72.4,27.5c-5.3,0 -11.7,1.9 -11,7.7l5.2,0c0.1,0 0.1,0 0.2,0c2.2,0 4.1,1.7 4.3,3.9l0,0.9c-0.2,1.8 -1.5,3.3 -3.2,3.8c-5.6,0.8 -16.6,1.1 -16.6,-8.5l-20.1,0c2.1,1.7 4.8,8.6 10.3,14.1c2,1.4 4.5,2.2 10.4,0.5c8.9,-2.6 11.3,-2.8 16.2,-0.6c3.1,1.4 4.8,2.6 8.1,2.3c2.5,-0.2 4.5,-1.5 5.1,-3.5l0,-7.9c0,-7.6 7.2,-6.2 7.2,-12.6l-16.1,-0.1m-21.1,28.6c2.7,1.2 5.6,1.3 13.2,1.3c2.1,0 4,-0.1 5.7,-0.2c-3.5,-0.4 -5.1,-2 -10.7,-2.1c-3.2,0 -5.8,0.6 -8.2,1" class="st5"/>
   <path id="svg_30" d="m75.7,1.7c-4,-0.8 -7.8,-1.1 -11.2,-1.1c-9.5,0 -16.1,2.8 -20.8,6.6c0,0 0,0 -0.1,0l0,0c-3.4,2.8 -5.7,6.1 -7.3,9.1c-3.9,7.7 -4,15.3 -4,15.6l0,1.5l17.2,0l-0.1,-1.6c0,-0.1 -0.5,-14.9 8.1,-17.2c2.1,-0.6 4.4,-0.6 6.6,-0.7c5.8,-0.2 12.4,-0.4 12.7,-10.7l0,-1.3l-1.1,-0.2l0,0zm-40.3,28.7c0.1,-1.4 0.4,-3.7 1.1,-6.3c0.5,-2.2 3.3,-4.5 6.5,-5.5c2.3,-0.7 4.4,-0.6 5.9,0.3c-2,4.2 -2.3,9.1 -2.4,11.5l-11.1,0l0,0zm21.4,-18.7c-2.8,0.8 -4.9,2.5 -6.4,4.6c-2.2,-1.3 -5.1,-1.5 -8.2,-0.6c-1,0.3 -1.9,0.7 -2.8,1.2c1.6,-2.9 3.6,-5.3 5.9,-7.3c3.1,-2 8.9,-3.1 12.9,-1.6c1.6,0.6 2.7,1.6 3.3,2.9c-1.6,0.2 -3.2,0.4 -4.7,0.8l0,0zm7.8,-0.8c-0.8,-2.6 -2.7,-4.5 -5.4,-5.6c-1.1,-0.4 -2.2,-0.7 -3.4,-0.8c2.6,-0.6 5.5,-0.9 8.6,-0.9c2.9,0 6.1,0.3 9.4,0.9c-0.6,5.9 -3.9,6.2 -9.2,6.4l0,0zm-62.5,81.9l58.4,-0.4l58,0.4c1.9,0 2,-2.3 0,-2.3l-58,0.8l-58.4,-0.7c-1.9,0 -1.8,2.3 0,2.2" class="st5"/>
  </g>
 </g>
</svg>